<?xml version="1.0" encoding="utf-8"?>
<!-- Generator: Adobe Illustrator 24.1.1, SVG Export Plug-In . SVG Version: 6.00 Build 0)  -->
<svg version="1.1" id="Layer_1" xmlns="http://www.w3.org/2000/svg" xmlns:xlink="http://www.w3.org/1999/xlink" x="0px" y="0px"
	 viewBox="0 0 512 512" style="enable-background:new 0 0 512 512;" xml:space="preserve">
<g>
	<path d="M153.6,0h204.8c56.58,0,102.4,45.85,102.4,102.4v307.2c0,56.55-45.82,102.4-102.4,102.4H153.6
		c-56.55,0-102.4-45.85-102.4-102.4V102.4C51.2,45.85,97.05,0,153.6,0z M153.6,51.2c-28.28,0-51.2,22.92-51.2,51.2v307.2
		c0,28.27,22.92,51.2,51.2,51.2h204.8c28.3,0,51.2-22.92,51.2-51.2V102.4c0-28.28-22.9-51.2-51.2-51.2H153.6z M256,435.2
		c-70.68,0-128-57.3-128-128s57.32-128,128-128c70.7,0,128,57.3,128,128S326.7,435.2,256,435.2z M256,384
		c42.42,0,76.8-34.38,76.8-76.8s-34.38-76.8-76.8-76.8c-42.4,0-76.8,34.38-76.8,76.8S213.6,384,256,384z M153.6,76.8H256
		c14.15,0,25.6,11.45,25.6,25.6V128c0,14.13-11.45,25.6-25.6,25.6H153.6c-14.13,0-25.6-11.48-25.6-25.6v-25.6
		C128,88.25,139.48,76.8,153.6,76.8z M332.8,76.8h25.6c14.15,0,25.6,11.45,25.6,25.6V128c0,14.13-11.45,25.6-25.6,25.6h-25.6
		c-14.13,0-25.6-11.48-25.6-25.6v-25.6C307.2,88.25,318.67,76.8,332.8,76.8z M256,332.8c-14.13,0-25.6-11.47-25.6-25.6
		c0-14.15,11.48-25.6,25.6-25.6c14.15,0,25.6,11.45,25.6,25.6C281.6,321.33,270.15,332.8,256,332.8z"/>
</g>
</svg>
